<?xml version="1.0" encoding="us-ascii" standalone="no"?><svg xmlns="http://www.w3.org/2000/svg" xmlns:xlink="http://www.w3.org/1999/xlink" contentStyleType="text/css" height="931px" preserveAspectRatio="none" style="width:943px;height:931px;background:#FFFFFF;" version="1.1" viewBox="0 0 943 931" width="943px" zoomAndPan="magnify"><defs/><g><rect fill="none" height="100.0818" style="stroke:#000000;stroke-width:1.5;" width="302.5" x="320" y="263.304"/><rect fill="none" height="66.3758" style="stroke:#000000;stroke-width:1.5;" width="282.5" x="330" y="290.01"/><rect fill="none" height="277.0602" style="stroke:#000000;stroke-width:1.5;" width="927.5" x="10" y="553.6219"/><line style="stroke:#181818;stroke-width:0.5;stroke-dasharray:5.0,5.0;" x1="50" x2="50" y1="84.0679" y2="847.6821"/><line style="stroke:#181818;stroke-width:0.5;stroke-dasharray:5.0,5.0;" x1="198" x2="198" y1="84.0679" y2="847.6821"/><line style="stroke:#181818;stroke-width:0.5;stroke-dasharray:5.0,5.0;" x1="374" x2="374" y1="84.0679" y2="847.6821"/><line style="stroke:#181818;stroke-width:0.5;stroke-dasharray:5.0,5.0;" x1="557.5" x2="557.5" y1="84.0679" y2="847.6821"/><line style="stroke:#181818;stroke-width:0.5;stroke-dasharray:5.0,5.0;" x1="717" x2="717" y1="84.0679" y2="847.6821"/><line style="stroke:#181818;stroke-width:0.5;stroke-dasharray:5.0,5.0;" x1="874.5" x2="874.5" y1="84.0679" y2="847.6821"/><text fill="#000000" font-family="sans-serif" font-size="14" lengthAdjust="spacing" textLength="54" x="20" y="79.9659">Handler</text><ellipse cx="50" cy="13.5" fill="#E2E2F0" rx="8" ry="8" style="stroke:#181818;stroke-width:0.5;"/><path d="M50,21.5 L50,48.5 M37,29.5 L63,29.5 M50,48.5 L37,63.5 M50,48.5 L63,63.5 " fill="none" style="stroke:#181818;stroke-width:0.5;"/><text fill="#000000" font-family="sans-serif" font-size="14" lengthAdjust="spacing" textLength="54" x="20" y="861.648">Handler</text><ellipse cx="50" cy="874.25" fill="#E2E2F0" rx="8" ry="8" style="stroke:#181818;stroke-width:0.5;"/><path d="M50,882.25 L50,909.25 M37,890.25 L63,890.25 M50,909.25 L37,924.25 M50,909.25 L63,924.25 " fill="none" style="stroke:#181818;stroke-width:0.5;"/><rect fill="#E2E2F0" height="33.0679" rx="2.5" ry="2.5" style="stroke:#181818;stroke-width:0.5;" width="52" x="172" y="50"/><text fill="#000000" font-family="sans-serif" font-size="14" lengthAdjust="spacing" textLength="38" x="179" y="71.9659">REMS</text><rect fill="#E2E2F0" height="33.0679" rx="2.5" ry="2.5" style="stroke:#181818;stroke-width:0.5;" width="52" x="172" y="846.6821"/><text fill="#000000" font-family="sans-serif" font-size="14" lengthAdjust="spacing" textLength="38" x="179" y="868.648">REMS</text><rect fill="#E2E2F0" height="33.0679" rx="2.5" ry="2.5" style="stroke:#181818;stroke-width:0.5;" width="68" x="340" y="50"/><text fill="#000000" font-family="sans-serif" font-size="14" lengthAdjust="spacing" textLength="54" x="347" y="71.9659">rems-co</text><rect fill="#E2E2F0" height="33.0679" rx="2.5" ry="2.5" style="stroke:#181818;stroke-width:0.5;" width="68" x="340" y="846.6821"/><text fill="#000000" font-family="sans-serif" font-size="14" lengthAdjust="spacing" textLength="54" x="347" y="868.648">rems-co</text><rect fill="#E2E2F0" height="33.0679" rx="2.5" ry="2.5" style="stroke:#181818;stroke-width:0.5;" width="89" x="513.5" y="50"/><text fill="#000000" font-family="sans-serif" font-size="14" lengthAdjust="spacing" textLength="75" x="520.5" y="71.9659">COmanage</text><rect fill="#E2E2F0" height="33.0679" rx="2.5" ry="2.5" style="stroke:#181818;stroke-width:0.5;" width="89" x="513.5" y="846.6821"/><text fill="#000000" font-family="sans-serif" font-size="14" lengthAdjust="spacing" textLength="75" x="520.5" y="868.648">COmanage</text><text fill="#000000" font-family="sans-serif" font-size="14" lengthAdjust="spacing" textLength="80" x="674" y="79.9659">Data Holder</text><path d="M699,29 C699,19 717,19 717,19 C717,19 735,19 735,29 L735,55 C735,65 717,65 717,65 C717,65 699,65 699,55 L699,29 " fill="#E2E2F0" style="stroke:#181818;stroke-width:1.5;"/><path d="M699,29 C699,39 717,39 717,39 C717,39 735,39 735,29 " fill="none" style="stroke:#181818;stroke-width:1.5;"/><text fill="#000000" font-family="sans-serif" font-size="14" lengthAdjust="spacing" textLength="80" x="674" y="861.648">Data Holder</text><path d="M699,875.75 C699,865.75 717,865.75 717,865.75 C717,865.75 735,865.75 735,875.75 L735,901.75 C735,911.75 717,911.75 717,911.75 C717,911.75 699,911.75 699,901.75 L699,875.75 " fill="#E2E2F0" style="stroke:#181818;stroke-width:1.5;"/><path d="M699,875.75 C699,885.75 717,885.75 717,885.75 C717,885.75 735,885.75 735,875.75 " fill="none" style="stroke:#181818;stroke-width:1.5;"/><text fill="#000000" font-family="sans-serif" font-size="14" lengthAdjust="spacing" textLength="99" x="822.5" y="79.9659">Data Applicant</text><ellipse cx="875" cy="13.5" fill="#E2E2F0" rx="8" ry="8" style="stroke:#181818;stroke-width:0.5;"/><path d="M875,21.5 L875,48.5 M862,29.5 L888,29.5 M875,48.5 L862,63.5 M875,48.5 L888,63.5 " fill="none" style="stroke:#181818;stroke-width:0.5;"/><text fill="#000000" font-family="sans-serif" font-size="14" lengthAdjust="spacing" textLength="99" x="822.5" y="861.648">Data Applicant</text><ellipse cx="875" cy="874.25" fill="#E2E2F0" rx="8" ry="8" style="stroke:#181818;stroke-width:0.5;"/><path d="M875,882.25 L875,909.25 M862,890.25 L888,890.25 M875,909.25 L862,924.25 M875,909.25 L888,924.25 " fill="none" style="stroke:#181818;stroke-width:0.5;"/><polygon fill="#008000" points="186,113.7739,196,117.7739,186,121.7739,190,117.7739" style="stroke:#008000;stroke-width:1.0;"/><line style="stroke:#008000;stroke-width:1.0;" x1="50" x2="192" y1="117.7739" y2="117.7739"/><text fill="#000000" font-family="sans-serif" font-size="13" lengthAdjust="spacing" textLength="124" x="57" y="111.9649">Approve entitlement</text><polygon fill="#181818" points="362,163.186,372,167.186,362,171.186,366,167.186" style="stroke:#181818;stroke-width:1.0;"/><line style="stroke:#181818;stroke-width:1.0;" x1="198" x2="368" y1="167.186" y2="167.186"/><text fill="#000000" font-family="sans-serif" font-size="13" lengthAdjust="spacing" textLength="152" x="205" y="143.6709">POST {user:resource:end}</text><text fill="#000000" font-family="sans-serif" font-size="13" lengthAdjust="spacing" textLength="55" x="205" y="161.377">/approve</text><polygon fill="#181818" points="863,194.892,873,198.892,863,202.892,867,198.892" style="stroke:#181818;stroke-width:1.0;"/><line style="stroke:#181818;stroke-width:1.0;" x1="198" x2="869" y1="198.892" y2="198.892"/><text fill="#000000" font-family="sans-serif" font-size="13" lengthAdjust="spacing" textLength="132" x="205" y="193.083">Email notification sent</text><polygon fill="#181818" points="546,244.304,556,248.304,546,252.304,550,248.304" style="stroke:#181818;stroke-width:1.0;"/><line style="stroke:#181818;stroke-width:1.0;" x1="374" x2="552" y1="248.304" y2="248.304"/><text fill="#000000" font-family="sans-serif" font-size="13" lengthAdjust="spacing" textLength="104" x="381" y="224.789">Group associated</text><text fill="#000000" font-family="sans-serif" font-size="13" lengthAdjust="spacing" textLength="124" x="381" y="242.495">with resource exists?</text><path d="M320,263.304 L381.2188,263.304 L381.2188,273.01 L371.2188,283.01 L320,283.01 L320,263.304 " fill="#EEEEEE" style="stroke:#000000;stroke-width:1.5;"/><rect fill="none" height="100.0818" style="stroke:#000000;stroke-width:1.5;" width="302.5" x="320" y="263.304"/><text fill="#000000" font-family="sans-serif" font-size="13" font-weight="bold" lengthAdjust="spacing" textLength="16.2188" x="335" y="278.201">alt</text><text fill="#000000" font-family="sans-serif" font-size="11" font-weight="bold" lengthAdjust="spacing" textLength="61.0938" x="396.2188" y="277.0629">[no group]</text><path d="M330,290.01 L391.2188,290.01 L391.2188,299.716 L381.2188,309.716 L330,309.716 L330,290.01 " fill="#EEEEEE" style="stroke:#000000;stroke-width:1.5;"/><rect fill="none" height="66.3758" style="stroke:#000000;stroke-width:1.5;" width="282.5" x="330" y="290.01"/><text fill="#000000" font-family="sans-serif" font-size="13" font-weight="bold" lengthAdjust="spacing" textLength="16.2188" x="345" y="304.907">alt</text><text fill="#000000" font-family="sans-serif" font-size="11" font-weight="bold" lengthAdjust="spacing" textLength="89.1563" x="406.2188" y="303.7689">[resource policy</text><text fill="#000000" font-family="sans-serif" font-size="11" font-weight="bold" lengthAdjust="spacing" textLength="114.1875" x="406.2188" y="318.7508">allows group create]</text><polygon fill="#181818" points="546,344.3858,556,348.3858,546,352.3858,550,348.3858" style="stroke:#181818;stroke-width:1.0;"/><line style="stroke:#181818;stroke-width:1.0;" x1="374" x2="552" y1="348.3858" y2="348.3858"/><text fill="#000000" font-family="sans-serif" font-size="13" lengthAdjust="spacing" textLength="79" x="381" y="342.5768">Create group</text><polygon fill="#181818" points="546,407.7979,556,411.7979,546,415.7979,550,411.7979" style="stroke:#181818;stroke-width:1.0;"/><line style="stroke:#181818;stroke-width:1.0;" x1="374" x2="552" y1="411.7979" y2="411.7979"/><text fill="#000000" font-family="sans-serif" font-size="13" lengthAdjust="spacing" textLength="109" x="381" y="388.2829">Add user to group</text><text fill="#000000" font-family="sans-serif" font-size="13" lengthAdjust="spacing" textLength="160" x="381" y="405.9889">ValidThrough yyyy-mm-dd</text><polygon fill="#181818" points="728,439.5039,718,443.5039,728,447.5039,724,443.5039" style="stroke:#181818;stroke-width:1.0;"/><line style="stroke:#181818;stroke-width:1.0;stroke-dasharray:2.0,2.0;" x1="722" x2="874" y1="443.5039" y2="443.5039"/><text fill="#000000" font-family="sans-serif" font-size="13" lengthAdjust="spacing" textLength="85" x="734" y="437.6949">identified user</text><polygon fill="#181818" points="569,453.5039,559,457.5039,569,461.5039,565,457.5039" style="stroke:#181818;stroke-width:1.0;"/><line style="stroke:#181818;stroke-width:1.0;stroke-dasharray:2.0,2.0;" x1="563" x2="716" y1="457.5039" y2="457.5039"/><polygon fill="#181818" points="705,502.9159,715,506.9159,705,510.9159,709,506.9159" style="stroke:#181818;stroke-width:1.0;"/><line style="stroke:#181818;stroke-width:1.0;stroke-dasharray:2.0,2.0;" x1="558" x2="711" y1="506.9159" y2="506.9159"/><text fill="#000000" font-family="sans-serif" font-size="13" lengthAdjust="spacing" textLength="108" x="565" y="483.4009">Entitlements from</text><text fill="#000000" font-family="sans-serif" font-size="13" lengthAdjust="spacing" textLength="135" x="565" y="501.1069">e.g. OIDC groups claim</text><polygon fill="#008000" points="863,534.6219,873,538.6219,863,542.6219,867,538.6219" style="stroke:#008000;stroke-width:1.0;"/><line style="stroke:#008000;stroke-width:1.0;" x1="717" x2="869" y1="538.6219" y2="538.6219"/><text fill="#000000" font-family="sans-serif" font-size="13" lengthAdjust="spacing" textLength="122" x="724" y="532.8129">Resource is available</text><path d="M10,553.6219 L71.2188,553.6219 L71.2188,563.328 L61.2188,573.328 L10,573.328 L10,553.6219 " fill="#EEEEEE" style="stroke:#000000;stroke-width:1.5;"/><rect fill="none" height="277.0602" style="stroke:#000000;stroke-width:1.5;" width="927.5" x="10" y="553.6219"/><text fill="#000000" font-family="sans-serif" font-size="13" font-weight="bold" lengthAdjust="spacing" textLength="16.2188" x="25" y="568.519">alt</text><text fill="#000000" font-family="sans-serif" font-size="11" font-weight="bold" lengthAdjust="spacing" textLength="70.125" x="86.2188" y="567.3809">[Revocation]</text><polygon fill="#FF0000" points="186,593.034,196,597.034,186,601.034,190,597.034" style="stroke:#FF0000;stroke-width:1.0;"/><line style="stroke:#FF0000;stroke-width:1.0;" x1="50" x2="192" y1="597.034" y2="597.034"/><text fill="#000000" font-family="sans-serif" font-size="13" lengthAdjust="spacing" textLength="117" x="57" y="591.225">Revoke entitlement</text><polygon fill="#181818" points="362,642.446,372,646.446,362,650.446,366,646.446" style="stroke:#181818;stroke-width:1.0;"/><line style="stroke:#181818;stroke-width:1.0;" x1="198" x2="368" y1="646.446" y2="646.446"/><text fill="#000000" font-family="sans-serif" font-size="13" lengthAdjust="spacing" textLength="126" x="205" y="622.931">POST {user:resource}</text><text fill="#000000" font-family="sans-serif" font-size="13" lengthAdjust="spacing" textLength="46" x="205" y="640.637">/revoke</text><polygon fill="#181818" points="546,691.858,556,695.858,546,699.858,550,695.858" style="stroke:#181818;stroke-width:1.0;"/><line style="stroke:#181818;stroke-width:1.0;" x1="374" x2="552" y1="695.858" y2="695.858"/><text fill="#000000" font-family="sans-serif" font-size="13" lengthAdjust="spacing" textLength="150" x="381" y="672.343">Remove user from group</text><text fill="#000000" font-family="sans-serif" font-size="13" lengthAdjust="spacing" textLength="127" x="381" y="690.049">effective immediately</text><polygon fill="#181818" points="728,723.5641,718,727.5641,728,731.5641,724,727.5641" style="stroke:#181818;stroke-width:1.0;"/><line style="stroke:#181818;stroke-width:1.0;stroke-dasharray:2.0,2.0;" x1="722" x2="874" y1="727.5641" y2="727.5641"/><text fill="#000000" font-family="sans-serif" font-size="13" lengthAdjust="spacing" textLength="85" x="734" y="721.7551">identified user</text><polygon fill="#181818" points="569,737.5641,559,741.5641,569,745.5641,565,741.5641" style="stroke:#181818;stroke-width:1.0;"/><line style="stroke:#181818;stroke-width:1.0;stroke-dasharray:2.0,2.0;" x1="563" x2="716" y1="741.5641" y2="741.5641"/><polygon fill="#181818" points="705,786.9761,715,790.9761,705,794.9761,709,790.9761" style="stroke:#181818;stroke-width:1.0;"/><line style="stroke:#181818;stroke-width:1.0;stroke-dasharray:2.0,2.0;" x1="558" x2="711" y1="790.9761" y2="790.9761"/><text fill="#000000" font-family="sans-serif" font-size="13" lengthAdjust="spacing" textLength="108" x="565" y="767.4611">Entitlements from</text><text fill="#000000" font-family="sans-serif" font-size="13" lengthAdjust="spacing" textLength="135" x="565" y="785.1671">e.g. OIDC groups claim</text><line style="stroke:#FF0000;stroke-width:2.0;" x1="857" x2="867" y1="817.6821" y2="827.6821"/><line style="stroke:#FF0000;stroke-width:2.0;" x1="857" x2="867" y1="827.6821" y2="817.6821"/><line style="stroke:#FF0000;stroke-width:1.0;" x1="717" x2="862" y1="822.6821" y2="822.6821"/><text fill="#000000" font-family="sans-serif" font-size="13" lengthAdjust="spacing" textLength="134" x="724" y="816.8731">Resource not available</text><!--SRC=[hLDDYzim4BthLppIixTt7xQ4REZsiAHabrAeUz1QOqUiFeoaP1jA_tj7TkBOD0ijr60iQTwy6RrvNjR91znBfmm5qScGTAqxwHAswuV7sK4W6siF6R78owBsYrbyjR7IoPOWb4poMKR27I_klL4K-hIynR1VY6LVUTbrHjSvVGICHmiXJesX-FQk3KJk-stV5ygC2lv089TqCcJvA_fGSNlkjCJdpUCJVkuZXJ9GzFjGKqbE_QhSUpdaZpcNHagihTG6pYVTy57ItY5c_XCleyUxblWO_BxZxgEljKoaAlUgqmxdUg0VEgRuGKYJc19jXWiWRqTCvxdsiNBI6FyQ1mpgGCp7KE1guLKV7mdvNYA_Lx5BfP1bG3frKBalqcZrjEDDkyEHdyBQWc7YeaJ199CHbj0gozre6jZ495XC2egnyXyCwyku8fhWRUNefht1vjFTQkWieZPIsndtPVhJCMtFyka8UU2HoMT3eXTwImS_J8wLcPWeaBfOA8DUvWu2_iP3sJ-XJnPlp6PBDfkpbppVyYmwDGtLIND8Mqig6yOSmIp_83hmbkp0_n1-pZzezlMwyFoBJ9JFxkFdDm00]--></g></svg>